<svg width="50" height="50" viewBox="0 0 50 50" fill="none" xmlns="http://www.w3.org/2000/svg">
<g clip-path="url(#clip0_24_550)">
<path d="M20.1259 19.8087C20.1259 17.4509 18.5199 17.4509 18.5199 17.4509H11.917V22.5041H18.1107C19.1797 22.5041 20.1259 22.1665 20.1259 19.8087Z" fill="#D87D63"/>
<path d="M18.5199 26.0076H11.917V32.0683H18.213C19.1643 32.0376 20.9135 31.741 20.9135 29.1223C20.9135 25.9718 18.5199 26.0076 18.5199 26.0076Z" fill="#D87D63"/>
<path d="M35.4181 22.5041C31.9146 22.5041 31.4287 26.0025 31.4287 26.0025H38.8755C38.8755 26.0025 38.9216 22.5041 35.4181 22.5041Z" fill="#D87D63"/>
<path d="M25.011 0C18.381 -5.54757e-07 12.0224 2.63305 7.3333 7.32021C2.64423 12.0074 0.00857368 18.3649 0.00586147 24.9949C0.00451781 28.2781 0.650037 31.5295 1.90555 34.5632C3.16106 37.5969 5.00196 40.3535 7.32308 42.6756C9.6442 44.9976 12.4001 46.8396 15.4333 48.0964C18.4664 49.3531 21.7175 50 25.0007 50C28.2835 50.0007 31.5343 49.3547 34.5674 48.0988C37.6006 46.843 40.3566 45.002 42.6781 42.681C44.9996 40.3599 46.8412 37.6043 48.0976 34.5714C49.3541 31.5386 50.0007 28.2879 50.0007 25.0051C50.0021 21.7223 49.3567 18.4714 48.1016 15.438C46.8464 12.4047 45.0059 9.64827 42.6853 7.32626C40.3648 5.00425 37.6095 3.16212 34.5769 1.90507C31.5443 0.648019 28.2938 0.000671468 25.011 0ZM30.4529 14.7555H39.8074V17.5481H30.4529V14.7555ZM25.7219 29.4036C25.7219 36.3134 18.5206 36.0935 18.5206 36.0935H6.72129V13.4206H18.5206C22.1008 13.4206 24.9394 15.4 24.9394 19.4558C24.9394 23.5117 21.487 23.7725 21.487 23.7725C26.039 23.7725 25.7219 29.4036 25.7219 29.4036ZM43.2239 29.0303H31.4604C31.4604 33.2447 35.4652 32.9787 35.4652 32.9787H35.4396C39.209 32.9787 39.076 30.5391 39.076 30.5391H43.0654C43.0654 37.0141 35.3066 36.5692 35.3066 36.5692C25.993 36.5692 26.6118 27.8744 26.6118 27.8744C26.6118 27.8744 26.6118 19.1796 35.3066 19.1796C44.5026 19.1899 43.2239 29.0303 43.2239 29.0303Z" fill="#D87D63"/>
</g>
<defs>
<clipPath id="clip0_24_550">
<rect width="50" height="50" fill="white"/>
</clipPath>
</defs>
</svg>
