<?xml version="1.0" encoding="utf-8"?>
<!-- Generator: Adobe Illustrator 27.1.1, SVG Export Plug-In . SVG Version: 6.00 Build 0)  -->
<svg version="1.1" id="Layer_1" xmlns="http://www.w3.org/2000/svg" xmlns:xlink="http://www.w3.org/1999/xlink" x="0px" y="0px"
	 viewBox="0 0 50 50" style="enable-background:new 0 0 50 50;" xml:space="preserve">
<style type="text/css">
	.st0{fill:#D87D63;}
</style>
<path class="st0" d="M25,0C11.2,0,0,11.2,0,25s11.2,25,25,25s25-11.2,25-25S38.8,0,25,0z M13.7,15.5h22.6c0.5,0,1,0.1,1.4,0.4
	l-12,11.9c-0.2,0.2-0.4,0.3-0.6,0.3c-0.2,0-0.5-0.1-0.7-0.3l-12-12C12.8,15.7,13.3,15.5,13.7,15.5z M11,31.7V18.3
	c0-0.4,0.1-0.8,0.2-1.1l8,8l-7.9,7.9C11.1,32.7,11,32.2,11,31.7z M36.3,34.5H13.7c-0.3,0-0.7-0.1-1-0.2l7.8-7.8l2.7,2.7
	c0.5,0.5,1.2,0.8,2,0.8c0.7,0,1.4-0.3,1.9-0.8l2.5-2.6l7.7,7.7C37,34.4,36.6,34.5,36.3,34.5z M39,31.7c0,0.5-0.1,1-0.4,1.4l-7.8-7.8
	l8-8c0.1,0.3,0.2,0.6,0.2,1V31.7z"/>
</svg>
