<?xml version="1.0" encoding="utf-8"?>
<!-- Generator: Adobe Illustrator 27.1.1, SVG Export Plug-In . SVG Version: 6.00 Build 0)  -->
<svg version="1.1" id="Layer_1" xmlns="http://www.w3.org/2000/svg" xmlns:xlink="http://www.w3.org/1999/xlink" x="0px" y="0px"
	 viewBox="0 0 50 50" style="enable-background:new 0 0 50 50;" xml:space="preserve">
<style type="text/css">
	.st0{fill-rule:evenodd;clip-rule:evenodd;fill:#D87D63;}
</style>
<path class="st0" d="M25,0C11.2,0,0,11.5,0,25.6c0,11.3,7.2,20.9,17.1,24.3c1.2,0.3,1.7-0.5,1.7-1.2c0-0.6,0-2.6,0-4.8
	c-7,1.5-8.4-3.1-8.4-3.1C9.3,37.9,7.6,37,7.6,37c-2.3-1.5,0.1-1.5,0.1-1.5c2.5,0.2,3.9,2.6,3.9,2.6c2.2,3.9,5.8,2.8,7.3,2.1
	c0.2-1.6,0.9-2.8,1.6-3.5c-5.6-0.6-11.4-2.8-11.4-12.6c0-2.8,1-5.1,2.6-6.9c-0.2-0.6-1.1-3.3,0.2-6.8c0,0,2.1-0.7,6.9,2.6
	c2-0.6,4.1-0.8,6.3-0.8c2.1,0,4.3,0.3,6.3,0.8c4.8-3.4,6.9-2.6,6.9-2.6c1.4,3.6,0.5,6.2,0.2,6.8c1.6,1.8,2.6,4.1,2.6,6.9
	c0,9.9-5.8,12-11.4,12.6c0.9,0.8,1.7,2.3,1.7,4.8v7c0,0.7,0.5,1.5,1.7,1.2c9.7-3.4,16.9-13,16.9-24.3C50,11.5,38.8,0,25,0z"/>
</svg>
