<svg enable-background="new 0 0 50 50" viewBox="0 0 50 50" xmlns="http://www.w3.org/2000/svg"><path clip-rule="evenodd" d="m25 0c-13.8 0-25 11.5-25 25.6 0 11.3 7.2 20.9 17.1 24.3 1.2.3 1.7-.5 1.7-1.2 0-.6 0-2.6 0-4.8-7 1.5-8.4-3.1-8.4-3.1-1.1-2.9-2.8-3.8-2.8-3.8-2.3-1.5.1-1.5.1-1.5 2.5.2 3.9 2.6 3.9 2.6 2.2 3.9 5.8 2.8 7.3 2.1.2-1.6.9-2.8 1.6-3.5-5.6-.6-11.4-2.8-11.4-12.6 0-2.8 1-5.1 2.6-6.9-.2-.6-1.1-3.3.2-6.8 0 0 2.1-.7 6.9 2.6 2-.6 4.1-.8 6.3-.8 2.1 0 4.3.3 6.3.8 4.8-3.4 6.9-2.6 6.9-2.6 1.4 3.6.5 6.2.2 6.8 1.6 1.8 2.6 4.1 2.6 6.9 0 9.9-5.8 12-11.4 12.6.9.8 1.7 2.3 1.7 4.8v7c0 .7.5 1.5 1.7 1.2 9.7-3.4 16.9-13 16.9-24.3 0-13.9-11.2-25.4-25-25.4z" fill="#d87d63" fill-rule="evenodd"/></svg>